<?xml version="1.0" encoding="UTF-8"?><svg id="svg5" xmlns="http://www.w3.org/2000/svg" viewBox="0 0 261.58 187.7"><defs><style>.cls-1{fill:#022e5b;}.cls-2{stroke-width:.79px;}.cls-2,.cls-3,.cls-4,.cls-5{fill:none;stroke:#022e5b;}.cls-3{stroke-width:.8px;}.cls-4{stroke-width:.75px;}.cls-5{stroke-width:.72px;}</style></defs><g id="g15759"><path id="path27272-5-0" class="cls-1" d="m.9,148.3l161.4,24.2,93.3-23.1,5.3,5.4-99.6,32.9L0,155.3l.9-7Z"/><path id="path28432-4-2" class="cls-1" d="m7.8,125.1l24.9.2.3,18.6-24.8-2.9-.4-15.9Z"/><path id="path28432-9-2-6" class="cls-1" d="m39.8,124.5l38.4-1.3-.2,26.9-37.7-4.2-.5-21.4Z"/><path id="path28432-9-0-5-8" class="cls-1" d="m40.1,97.6l38.6-7.8.2,28.3-38.6-.2-.2-20.3Z"/><path id="path29711-5-2" class="cls-1" d="m87.7,123l73.5-3-.7,38.1-71.8-7.2-1-27.9Z"/><path id="path29711-6-8-6" class="cls-1" d="m88.1,86.8l72.8-13.6.7,38.4-73.7,2.6.2-27.4Z"/><path id="path31377-9-3" class="cls-1" d="m8.8,103.8l24.6-3.5.2,19.3-25.3.5.5-16.3Z"/><path id="path31798-8-0" class="cls-1" d="m8,80.3l24.6-6.2.7,18.7-25.3,3.9v-16.4Z"/><path id="path31833-1-9" class="cls-1" d="m40.5,69.5l37.7-13.1.7,25.9-38.7,8.5.3-21.3Z"/><path id="path31870-1-3" class="cls-1" d="m88.1,51.5l73.1-26.6,1,39-74.8,15.4.7-27.8Z"/><path id="path31907-8-2" class="cls-1" d="m168.4,72.5l33,9.8-.8,31.8-31.5-2.3-.7-39.3Z"/><path id="path31942-1-6" class="cls-1" d="m206.5,83.3l20,5,.7,29.2-20-2-.7-32.2Z"/><path id="path31942-1-3-7-2" class="cls-2" d="m225.8,60.8l19.1,8.6-.3,23.8-18.1-5.1c-.3-17,0,.1-.7-27.3Z"/><path id="path31942-1-3-7-2-5" class="cls-5" d="m244.9,69.4l15.7,7.2.4,20.7-16.5-4.1c-.1-15.5.1.1.4-23.8h0Z"/><path id="path31942-1-3-7-2-5-2" class="cls-5" d="m245.3,93.5l15.7,3.9v11.9l-.1,12.8-16.3,1.3c.7-29.3.1-7.8.7-29.9Z"/><path id="path33810-0-8" class="cls-1" d="m168.8,119.5l31.3,2.3-.2,30.3-31.5,6.2.4-38.8Z"/><path id="path34011-9-2" class="cls-1" d="m206.2,122.7l19,.8.2,23.3-19.2,4.4v-28.5h0Z"/><path id="path34384-3-3" class="cls-1" d="m230.4,123.8l14.1-.5h-.2l.2,18.9c-13.1,3.7-10,2.8-13.1,3.7l-1-22.1Z"/><path id="path34384-3-3-5" class="cls-4" d="m244.4,123.3l16.5-1.3.3,15.6c-13.4,3.4-13.8,3.5-17.1,4.3,0-18.9.3-12.3.3-18.6h0Z"/><path id="path35881-0-2" class="cls-1" d="m10.1,75.5l23.4-6.8v-11.8l-23.4,18.6Z"/><path id="path35916-5-0" class="cls-1" d="m39.3,50l21.7-18.8,17.4.1.1,16.7-38.6,16.9-.6-14.9Z"/><path id="path35951-4-5" class="cls-1" d="m87.9,27.5l71.1-10.1-70.9,27-.2-16.9Z"/><path id="path36337-0-1" class="cls-1" d="m167.8,0l13.3,10,1.6-1-.5-2.6,10.8,8v4.4l10.5,8.4-.5,24.6-35.4-17.4.2-34.4Z"/><path id="path5957-4" class="cls-3" d="m207.4,89l-4.3-37.1,22.8,9,.7,27.4"/></g></svg>