<svg id="Grupo_15" data-name="Grupo 15" xmlns="http://www.w3.org/2000/svg" xmlns:xlink="http://www.w3.org/1999/xlink" width="111.11" height="100" viewBox="0 0 111.11 100">
  <defs>
    <clipPath id="clip-path">
      <rect id="Rect치ngulo_30" data-name="Rect치ngulo 30" width="111.11" height="100" fill="#1d357c"/>
    </clipPath>
  </defs>
  <g id="Grupo_14" data-name="Grupo 14" clip-path="url(#clip-path)">
    <path id="Trazado_46" data-name="Trazado 46" d="M129.922,37.66h-4.587v-.617q0-14.237,0-28.474a3.793,3.793,0,0,0-.884-2.545A3.567,3.567,0,0,0,121.609,4.7q-15.163.005-30.325,0c-2.112,0-4.226.049-6.336-.013a6.257,6.257,0,0,0-5.992,3.521A16.231,16.231,0,0,0,77.3,12.916q-1.922,9.112-3.878,18.215-2.031,9.53-4.06,19.06-.664,3.116-1.331,6.232c-.04.187-.075.374-.121.6h35.646c0-.5,0-1,0-1.5.02-1.782-.045-3.57.081-5.345a12.378,12.378,0,0,1,10.488-11.128,46.408,46.408,0,0,1,5.419-.171c3.292-.023,6.583-.009,9.875-.006a4.1,4.1,0,0,1,4.285,4.15c.038,4.69.012,9.381.011,14.072a.3.3,0,0,1-.014.08c-6.4-3.38-12.27-2.85-17.544,2.306-4.5,5.314-4.789,11.016-1.6,17.071H74.952A12.365,12.365,0,0,0,71.445,61,12.059,12.059,0,0,0,56.084,62a4.623,4.623,0,0,1,.615-1.99,5.439,5.439,0,0,1,4.931-2.946c.384-.005.769-.018,1.151.005.3.018.417-.071.483-.383q1.324-6.3,2.678-12.586,1.767-8.283,3.533-16.566c1.161-5.441,2.3-10.887,3.489-16.322a16.435,16.435,0,0,1,3.368-7.282A10.446,10.446,0,0,1,84.673.007c12.371.013,24.742-.044,37.113.033a7.888,7.888,0,0,1,7.42,4.984,8.057,8.057,0,0,1,.718,3.473q-.008,14.318,0,28.637Z" transform="translate(-27.674 0)" fill="#1d357c"/>
    <path id="Trazado_47" data-name="Trazado 47" d="M24.659,70.038H5.709V50.9h18.95ZM13.669,61.493H16.7V52.121H13.669Z" transform="translate(-2.817 -25.117)" fill="#1d357c"/>
    <path id="Trazado_48" data-name="Trazado 48" d="M182.256,111.12a12.687,12.687,0,1,1-12.52,12.373,12.636,12.636,0,0,1,12.52-12.373m8.086,12.713a8.066,8.066,0,1,0-8.069,8.1,8.091,8.091,0,0,0,8.069-8.1" transform="translate(-83.753 -54.831)" fill="#1d357c"/>
    <path id="Trazado_49" data-name="Trazado 49" d="M48.651,83.093c-.873,0-1.681.012-2.489,0-.442-.009-.633-.244-.634-.734q-.008-2.942,0-5.884,0-30,0-59.991c0-.864,0-1.728,0-2.592,0-.578.181-.759.765-.762.946-.006,1.893,0,2.839,0,.495,0,.666.169.668.674.005,1.522,0,3.045,0,4.567q0,25.387.006,50.774a1.573,1.573,0,0,1-.3.941,12.057,12.057,0,0,0-.976,12.732c.034.071.064.144.124.278" transform="translate(-22.463 -6.475)" fill="#1d357c"/>
    <path id="Trazado_50" data-name="Trazado 50" d="M72.721,129.1a10.771,10.771,0,1,1-10.71-10.835A10.834,10.834,0,0,1,72.721,129.1m-10.8,7.011A6.976,6.976,0,1,0,55,129.1a6.979,6.979,0,0,0,6.92,7.01" transform="translate(-25.255 -58.356)" fill="#1d357c"/>
    <path id="Trazado_51" data-name="Trazado 51" d="M171.277,59.58c-1.061,0-2.073.018-3.084,0a13.279,13.279,0,0,0-6.789,1.656c-.056.031-.118.052-.228.1V60.89q0-5,0-10a6.528,6.528,0,0,1,6.3-6.487c.548-.017,1.1-.008,1.645-.006a2,2,0,0,1,2.159,2.153q0,4.339,0,8.68c0,1.425,0,2.85,0,4.346" transform="translate(-79.531 -21.907)" fill="#1d357c"/>
    <path id="Trazado_52" data-name="Trazado 52" d="M82.581,92.18,85.07,80.538l1.456,3.369,6.831-3.977c-.433-.771-.852-1.52-1.273-2.267-.33-.585-.666-1.165-.992-1.752a1.464,1.464,0,0,1,.482-2.013,1.387,1.387,0,0,1,1.936.583q2.773,4.83,5.523,9.672a1.4,1.4,0,0,1-.518,1.957,1.373,1.373,0,0,1-1.928-.588c-.76-1.315-1.514-2.634-2.3-4l-7.038,4.1,2.843,6.556Z" transform="translate(-40.749 -36.37)" fill="#1d357c"/>
    <path id="Trazado_53" data-name="Trazado 53" d="M114.534,104.691a4.712,4.712,0,0,1,3.043-5.378,4.763,4.763,0,0,1,1.45-.245c3.95-.02,7.9-.013,11.85-.013.094,0,.187.017.285.026v5.611Z" transform="translate(-56.486 -48.877)" fill="#1d357c"/>
    <path id="Trazado_54" data-name="Trazado 54" d="M.009,94.185c0-.622-.024-1.211.007-1.8a1.379,1.379,0,0,1,1.27-1.244c.259-.018.521-.011.781-.011l19.164,0h.6v3.05Z" transform="translate(0 -44.968)" fill="#1d357c"/>
    <rect id="Rect치ngulo_29" data-name="Rect치ngulo 29" width="3.029" height="9.372" transform="translate(10.852 27.004)" fill="#1d357c"/>
    <path id="Trazado_55" data-name="Trazado 55" d="M194.7,128.264a8.065,8.065,0,1,1-7.966-8.164,8.083,8.083,0,0,1,7.966,8.164m-5.02-.008a3.044,3.044,0,1,0-3.05,3.073,3.079,3.079,0,0,0,3.05-3.073" transform="translate(-88.116 -59.262)" fill="#1d357c"/>
    <path id="Trazado_56" data-name="Trazado 56" d="M65.638,139.9a6.976,6.976,0,1,1,6.939-7.031,6.99,6.99,0,0,1-6.939,7.031m.009-9.6a2.627,2.627,0,0,0,0,5.254,2.648,2.648,0,0,0,2.63-2.651,2.621,2.621,0,0,0-2.625-2.6" transform="translate(-28.974 -62.149)" fill="#1d357c"/>
    <path id="Trazado_57" data-name="Trazado 57" d="M208.8,196.251c.094.165.208.278.185.345-.033.1-.164.163-.253.242-.065-.09-.181-.181-.181-.27s.125-.167.249-.317" transform="translate(-102.907 -96.838)" fill="#1d357c"/>
    <path id="Trazado_58" data-name="Trazado 58" d="M194.577,133.161a3.044,3.044,0,1,1-3.008-3.121,3.067,3.067,0,0,1,3.008,3.121" transform="translate(-93.009 -64.167)" fill="#1d357c"/>
    <path id="Trazado_59" data-name="Trazado 59" d="M69.882,134.55a2.621,2.621,0,0,1,2.626,2.6,2.6,2.6,0,1,1-5.206,0,2.61,2.61,0,0,1,2.58-2.6" transform="translate(-33.21 -66.392)" fill="#1d357c"/>
  </g>
</svg>
