<svg id="Grupo_19" data-name="Grupo 19" xmlns="http://www.w3.org/2000/svg" xmlns:xlink="http://www.w3.org/1999/xlink" width="96.431" height="100" viewBox="0 0 96.431 100">
  <defs>
    <clipPath id="clip-path">
      <rect id="Rectángulo_34" data-name="Rectángulo 34" width="96.431" height="100" fill="#1d357c"/>
    </clipPath>
  </defs>
  <g id="Grupo_18" data-name="Grupo 18" clip-path="url(#clip-path)">
    <path id="Trazado_71" data-name="Trazado 71" d="M132.869,0q.018,7.274.035,14.547c0,1.1,0,2.206,0,3.324-2.422.085-4.77-.468-7.188.2-.694-2.367-2.548-3-4.821-3.046-3.331-.074-6.661-.221-9.991-.341-14.576-.526-29.148-.254-43.717.287-.785.029-1.567.12-2.351.165a3.694,3.694,0,0,0-3.369,2.286c-.1.22-.225.43-.256.489-1.26-.051-2.427-.117-3.6-.141s-2.327-.005-3.616-.005V0Z" transform="translate(-45.219)" fill="#1d357c"/>
    <path id="Trazado_72" data-name="Trazado 72" d="M0,136.906c.112-.662.254-1.322.329-1.988.263-2.344,1.051-3.075,3.386-3.079.947,0,1.9.072,2.84.012,1.245-.08,1.41.535,1.419,1.456.018,1.839.045,3.682-.055,5.518-.135,2.484-.385,4.961-.586,7.442-.009.108-.02.215-.035.323-.257,1.913-.471,2.116-2.4,2.134-.783.007-1.567-.043-2.349-.082A2.422,2.422,0,0,1,.272,147.1c-.047-.109-.18-.181-.272-.27v-9.92" transform="translate(0 -110.4)" fill="#1d357c"/>
    <path id="Trazado_73" data-name="Trazado 73" d="M551.959,146.383c-.362,1.775-1.558,2.4-3.245,2.368-.837-.018-1.675-.029-2.512-.02-.89.009-1.267-.529-1.363-1.3-.181-1.448-.381-2.9-.459-4.353-.168-3.1-.265-6.211-.384-9.317a3.51,3.51,0,0,1,.054-.888c.132-.594.386-1,1.142-.97,1.268.055,2.542-.032,3.812,0a2.266,2.266,0,0,1,2.451,2.024c.217,1.191.252,2.415.372,3.623.034.345.088.687.133,1.031Z" transform="translate(-455.528 -110.445)" fill="#1d357c"/>
    <path id="Trazado_74" data-name="Trazado 74" d="M108.812,164.461c-9.349,0-18.7.059-28.046-.043a45.172,45.172,0,0,1-6.661-.928,1.332,1.332,0,0,1-.834-.654,4.319,4.319,0,0,1-.51-1.685c-.123-3.357-.2-6.715-.244-10.074a6.25,6.25,0,0,1,.341-1.478,5.753,5.753,0,0,0,.239-1.016c.073-1.352.164-2.708.135-4.06a18.856,18.856,0,0,0-.374-2.461,4.793,4.793,0,0,1-.118-.955c.323-6.521.563-13.048,1.018-19.561a214.815,214.815,0,0,1,2.6-23,18.409,18.409,0,0,1,1.312-3.729,2.593,2.593,0,0,1,2.35-1.625c2.269-.157,4.539-.372,6.811-.406,10.186-.15,20.373-.338,30.56-.324,6.31.009,12.619.412,18.931.521,2.508.043,4.087,1.116,4.693,3.489a43.827,43.827,0,0,1,1.127,5.725c.666,5.7,1.356,11.406,1.786,17.128.546,7.265.846,14.549,1.247,21.824a1.781,1.781,0,0,1-.06.719,11.771,11.771,0,0,0-.174,7.052c.627,2.587.364,5.1.409,7.641.028,1.568-.077,3.142-.206,4.707-.137,1.669-.568,2.111-2.171,2.409a42.339,42.339,0,0,1-8.065.815c-8.7-.062-17.4-.023-26.1-.023Zm.237-42.2q0,.1,0,.2c7.342-.087,14.685-.151,22.027-.271,2.733-.045,5.475-.1,8.191-.369,2.57-.254,3.449-1.464,3.363-4.054-.009-.271-.027-.542-.046-.812-.132-1.81-.192-3.63-.414-5.429-.544-4.406-1.163-8.8-1.75-13.2a1.816,1.816,0,0,0-1.8-1.753c-2.239-.192-4.475-.492-6.717-.55q-22.962-.59-45.926,0c-2.082.052-4.165.247-6.236.477-1.756.195-2.067.432-2.3,2.175-.7,5.15-1.324,10.311-1.91,15.475a44.292,44.292,0,0,0-.187,4.786,2.454,2.454,0,0,0,1.7,2.434,5.61,5.61,0,0,0,1.626.475c3.027.173,6.058.379,9.088.4,7.1.057,14.194.018,21.292.018m35.216,15.185c-2.137.519-4.154,1.175-6.221,1.464a6.345,6.345,0,0,0-4.6,2.964,7.851,7.851,0,0,0-.664,1.021c-1.161,2.471-2.3,4.954-3.456,7.424-.126.268-.323.644-.551.7a16.147,16.147,0,0,1-3.491.625c-10.651.047-21.3.014-31.953.044a11.6,11.6,0,0,1-3.984-.609,1.463,1.463,0,0,1-.735-.716c-.983-2.137-1.815-4.351-2.915-6.424a22.3,22.3,0,0,0-2.772-3.778,3.155,3.155,0,0,0-1.587-.886c-2.529-.632-5.078-1.182-7.669-1.773-.024.261-.075.687-.1,1.114a24.644,24.644,0,0,0,.331,4.663,25.852,25.852,0,0,1-.078,5.515,1.266,1.266,0,0,0,1.008,1.528,23.7,23.7,0,0,0,6.465,1.095c3.285.234,6.626-.114,9.838.924a2.725,2.725,0,0,0,.809.025q15.773,0,31.546.013a15.589,15.589,0,0,0,5.3-.535,2.857,2.857,0,0,1,.8-.111c2.355-.111,4.711-.2,7.064-.327a20.132,20.132,0,0,0,6.761-1.23.958.958,0,0,0,.7-1.1c-.1-1.567-.144-3.14-.149-4.711a8.407,8.407,0,0,1,.237-2.161c.437-1.646.053-3.257.063-4.761M79.008,122.735l-.241.132c.017.317.008.637.055.949a22.545,22.545,0,0,0,2.449,7.447c1.487,2.735,3.058,5.424,4.561,8.15a1.126,1.126,0,0,0,1.155.643q21.944-.02,43.889.007a1.245,1.245,0,0,0,1.259-.75c1.414-2.559,2.87-5.1,4.294-7.649a22.707,22.707,0,0,0,2.434-6.6c.146-.725.217-1.465.326-2.216-.819-.058-.78.457-.842.864a20.818,20.818,0,0,1-2.2,6.931c-1.4,2.567-2.854,5.1-4.254,7.671a1,1,0,0,1-1.054.537q-21.863-.013-43.727.007a1.177,1.177,0,0,1-1.193-.723c-.768-1.431-1.578-2.84-2.393-4.245-1.9-3.273-3.59-6.619-4.011-10.461-.027-.247-.331-.463-.506-.693m29.968,31.77s0,0,0,.005c-2.029,0-4.058,0-6.088,0-.691,0-1.065.287-1.059,1.015.007.811-.039,1.623-.014,2.434.038,1.242.174,1.382,1.439,1.393,2.9.026,5.79.027,8.685.03,1,0,2-.033,3-.033.754,0,1.17-.317,1.162-1.111-.009-.865,0-1.73,0-2.6.006-.815-.385-1.156-1.2-1.145-1.975.026-3.95.008-5.925.008m22.05-13.689H86.865c.337.8.7,1.209,1.624,1.207q20.442-.056,40.883-.01a1.5,1.5,0,0,0,1.653-1.2m-1.246,2.007H88.143a2.451,2.451,0,0,0,2.027.99q18.816-.02,37.632-.006a2.464,2.464,0,0,0,1.977-.984" transform="translate(-60.724 -77.427)" fill="#1d357c"/>
    <path id="Trazado_75" data-name="Trazado 75" d="M57.142,148.071a7.911,7.911,0,0,1-2.381-.066c-.45-.144-.857-.9-.986-1.452a10.157,10.157,0,0,1-.042-2.264c0-6.931.008-13.861-.015-20.791,0-.62.143-1.007.782-1.051a37.664,37.664,0,0,1,3.863-.179,4.375,4.375,0,0,1,1.5.638l-2.72,25.166" transform="translate(-44.958 -102.378)" fill="#1d357c"/>
    <path id="Trazado_76" data-name="Trazado 76" d="M501.424,122.094c1.044-.157,2.264-.342,3.485-.52a2.051,2.051,0,0,1,.406,0c2.061.113,2.255.315,2.255,2.338q0,10.843,0,21.687c0,1.467-.471,1.919-1.926,1.882-.51-.013-1.02,0-1.486,0l-2.734-25.388" transform="translate(-419.885 -101.796)" fill="#1d357c"/>
    <path id="Trazado_77" data-name="Trazado 77" d="M101.726,537.786c0,2.656.046,5.3-.02,7.947-.032,1.3-.528,1.678-1.784,1.682-1.46,0-2.923-.04-4.38.024a1.675,1.675,0,0,1-1.861-1.225,14.064,14.064,0,0,1-.611-2.752c-.219-2.062-.342-4.135-.507-6.235l9.163.559" transform="translate(-77.511 -449.865)" fill="#1d357c"/>
    <path id="Trazado_78" data-name="Trazado 78" d="M444.343,537.807l9.105-.555c-.075,1.279-.124,2.593-.237,3.9s-.252,2.642-.463,3.95a5.722,5.722,0,0,1-.608,1.578,1.35,1.35,0,0,1-1.326.762c-1.788-.018-3.577.009-5.364-.025a.957.957,0,0,1-.66-.42,2.364,2.364,0,0,1-.427-1.123c-.036-2.7-.019-5.4-.019-8.071" transform="translate(-372.082 -449.887)" fill="#1d357c"/>
    <path id="Trazado_79" data-name="Trazado 79" d="M57.41,316.13H54.291V294.518l.231-.119c.132.2.359.4.377.616.053.646.032,1.3.026,1.948a4.151,4.151,0,0,0,2.41,3.34c-.1,2.549-.224,5.116-.307,7.684a14.374,14.374,0,0,0,.32,4.493,14.046,14.046,0,0,1,.062,3.651" transform="translate(-45.462 -246.525)" fill="#1d357c"/>
    <path id="Trazado_80" data-name="Trazado 80" d="M519.453,300.239a4.279,4.279,0,0,0,2.383-3.331c.049-.673-.014-1.355.04-2.028.018-.225.24-.434.369-.65l.235.1v21.63h-3.07a14.136,14.136,0,0,1,.113-4.2,6.927,6.927,0,0,0,.288-2.055c-.087-3.164-.233-6.327-.357-9.468" transform="translate(-434.857 -246.384)" fill="#1d357c"/>
    <path id="Trazado_81" data-name="Trazado 81" d="M527.512,242.071c-1.669,2.515-3.26,5.01-4.976,7.416-.341.478-1.158.615-1.754.909.682,2.235.25,3.9-1.459,5.26-.125-2.309-.245-4.525-.37-6.838.768,0,1.485-.026,2.2.009a1.132,1.132,0,0,0,1.126-.607c1.156-1.86,2.364-3.688,3.5-5.561a1.245,1.245,0,0,1,1.736-.587" transform="translate(-434.563 -202.599)" fill="#1d357c"/>
    <path id="Trazado_82" data-name="Trazado 82" d="M30.83,248.743l-.344,6.7c-1.584-.613-2.194-3.078-1.481-5.1-.031-.043-.057-.117-.1-.124-1.7-.309-2.445-1.653-3.245-2.948-.911-1.475-1.837-2.939-2.751-4.413-.179-.288-.328-.6-.5-.919a1.174,1.174,0,0,1,1.564.574c1.1,1.835,2.3,3.608,3.406,5.439a1.441,1.441,0,0,0,1.519.8c.589-.05,1.187-.01,1.93-.01" transform="translate(-18.766 -202.525)" fill="#1d357c"/>
    <path id="Trazado_83" data-name="Trazado 83" d="M28.264,114.334c.738-.288,1.488-.549,2.212-.87,2.5-1.107,5.141-.935,7.762-.9.956.014,1.246.566.727,1.232a.794.794,0,0,1-.727.21,7,7,0,0,0-5.057-.271c-1.5.347-2.931,1-4.521.842l-.321-.033-.075-.215" transform="translate(-23.668 -94.235)" fill="#1d357c"/>
    <path id="Trazado_84" data-name="Trazado 84" d="M508.581,114.594a21.8,21.8,0,0,1-3.129-.5,11.674,11.674,0,0,0-5.259-.666,4.676,4.676,0,0,0-1.351.441c-.48.24-.759.14-.968-.325s-.16-.841.4-1.011a.749.749,0,0,1,.157-.038c3.555-.26,7.017,0,10.2,1.806l-.052.293" transform="translate(-416.813 -94.13)" fill="#1d357c"/>
    <path id="Trazado_85" data-name="Trazado 85" d="M362.015,607.115c-.037-.577-.064-.995-.1-1.521.99.427,1.018.785.1,1.521" transform="translate(-303.064 -507.115)" fill="#1d357c"/>
  </g>
</svg>
