<svg id="Grupo_17" data-name="Grupo 17" xmlns="http://www.w3.org/2000/svg" xmlns:xlink="http://www.w3.org/1999/xlink" width="91.265" height="100" viewBox="0 0 91.265 100">
  <defs>
    <clipPath id="clip-path">
      <rect id="Rectángulo_31" data-name="Rectángulo 31" width="91.265" height="100" fill="#1d357c"/>
    </clipPath>
  </defs>
  <g id="Grupo_16" data-name="Grupo 16" clip-path="url(#clip-path)">
    <path id="Trazado_60" data-name="Trazado 60" d="M90.355,0a2.928,2.928,0,0,0,.437.22,2.144,2.144,0,0,1,1.553,2.131c.054.923.063,1.85.063,2.775q0,15.662,0,31.323c0,.849,0,.827-.845.816-1.61-.023-3.221-.039-4.831-.013a.729.729,0,0,1-.831-.657c-1.024-3.8-2.085-7.588-3.1-11.391a5.517,5.517,0,0,0-3.266-4.133,8.234,8.234,0,0,0-2.484-.486c-4.545-.254-9.092-.461-13.64-.677-2.643-.125-5.289-.228-7.931-.358-.979-.048-1.958-.221-2.933-.2-2,.035-3.992.154-5.987.248q-2.855.134-5.71.287c-3.935.211-7.87.433-11.806.641-1.035.055-2.075.032-3.106.12a5.274,5.274,0,0,0-5.01,4.144c-1.074,3.861-2.114,7.732-3.163,11.6-.229.845-.219.847-1.12.847H11.154V35.775q.009-16.132.021-32.265a10.755,10.755,0,0,1,.078-1.274A2.127,2.127,0,0,1,12.814.23,2.307,2.307,0,0,0,13.246,0Z" transform="translate(-6.175)" fill="#1d357c"/>
    <path id="Trazado_61" data-name="Trazado 61" d="M56.817,111.98H24.99a4.276,4.276,0,0,1-4.212-3,9.57,9.57,0,0,1-.514-3.437c.124-3.515.225-7.031.339-10.546.15-4.588.281-9.177.466-13.764a63.451,63.451,0,0,1,.5-7.467,65.338,65.338,0,0,1,1.818-6.851Q25.542,59.087,27.7,51.26a3.751,3.751,0,0,1,3.24-2.789c1.233-.115,2.475-.14,3.714-.2q5.1-.252,10.2-.5c3.383-.168,6.766-.346,10.149-.508a97.16,97.16,0,0,1,10.7.387c2.216.137,4.44.164,6.658.27,3.4.162,6.8.319,10.2.54a3.831,3.831,0,0,1,3.488,3.007c.934,3.459,1.9,6.909,2.857,10.363,1.05,3.81,2.141,7.61,3.116,11.44a19.333,19.333,0,0,1,.442,3.8c.112,2.237.121,4.477.2,6.716.111,3.293.251,6.585.359,9.877.093,2.812.156,5.625.24,8.438.039,1.314.183,2.632.113,3.939a12.121,12.121,0,0,1-.584,3.2,3.891,3.891,0,0,1-3.542,2.691,28.36,28.36,0,0,1-2.885.069q-14.775.006-29.55,0ZM89.511,74.06c-.029-.18-.036-.289-.064-.393q-2.532-9.162-5.069-18.323c-.321-1.157-.644-2.312-.979-3.465a.969.969,0,0,0-1.028-.753c-.851-.007-1.7-.042-2.552-.084-2.995-.148-5.99-.295-8.984-.458-3.918-.215-7.833-.543-11.754-.636-2.954-.07-5.917.13-8.873.251-2.256.093-4.509.27-6.764.376-3.882.183-7.767.327-11.649.512-1.254.06-1.41.237-1.739,1.443q-1.331,4.892-2.678,9.78Q25.8,68,24.217,73.685a1.512,1.512,0,0,0,0,.375Zm-32.66,34.4v-.041c1.591,0,3.182,0,4.773,0,1.11,0,2.22.023,3.33.031,1.141.008,1.152,0,1.155-1.114,0-.98,0-1.961,0-2.942,0-1.192-.025-1.215-1.248-1.212q-7.854.019-15.708.041c-.333,0-.666.013-1,.02a.494.494,0,0,0-.548.552c-.008,1.369-.013,2.738-.026,4.107a.463.463,0,0,0,.5.526q.554.029,1.109.029,3.83,0,7.66,0M82.2,95.985V95.92c1.943,0,3.886-.009,5.828.007.461,0,.6-.166.6-.619-.021-1.665-.037-3.331.007-5,.016-.593-.246-.735-.736-.738-.148,0-.3-.007-.444-.007q-5.329,0-10.658,0c-.2,0-.407.012-.61.022-.335.017-.468.172-.464.529q.025,2.637,0,5.273c0,.408.151.578.542.577.24,0,.481.016.721.016q2.608,0,5.216,0m-50.638-.037v-.025c1.944,0,3.888-.009,5.832.008.433,0,.572-.137.566-.575-.023-1.666-.009-3.333-.009-5,0-.708-.034-.744-.735-.785-.111-.007-.222-.005-.333-.005l-10.444,0c-.259,0-.519,0-.777.018-.4.028-.619.189-.612.661.025,1.611,0,3.222.006,4.833,0,.808.031.857.841.863,1.888.014,3.777,0,5.665,0m6.357,3.146c-1.029,0-2.024,0-3.018,0q-4.634-.021-9.268-.054c-.37,0-.592.033-.581.493.017.711-.01.715.752.716q5.44.005,10.879.006H37.92Zm37.889,1.141c.165.008.345.025.526.025q5.581,0,11.163-.009a3.722,3.722,0,0,0,.774-.022.5.5,0,0,0,.316-.327,4.681,4.681,0,0,0,.015-.841h-.845c-3.683,0-7.367,0-11.05-.01-1.067,0-1.067-.025-.961,1.058a.5.5,0,0,0,.063.126" transform="translate(-11.214 -26.136)" fill="#1d357c"/>
    <path id="Trazado_62" data-name="Trazado 62" d="M80.457,199.171H76.664l-38.549.013c-1.337,0-1.324,0-1.321,1.352q0,3.027-.029,6.054c-.008.7-.267.98-.981.984q-4.221.027-8.443,0c-.654,0-.925-.316-.926-.978q-.005-3.388,0-6.777v-.652H23.5v-4.826a4.578,4.578,0,0,0,.811.329,14.47,14.47,0,0,0,2.558.394q30.883.026,61.765-.008c1.287,0,2.577-.13,3.86-.258a5.868,5.868,0,0,0,1.254-.434c0,.588,0,1.151,0,1.714,0,.833-.035,1.67.03,2.5.047.589-.176.674-.687.641-.714-.046-1.434-.012-2.206-.012-.011.219-.028.415-.028.611q0,3.333,0,6.665c0,.811-.286,1.1-1.1,1.1q-3.972,0-7.943,0c-1.111,0-1.3-.168-1.316-1.278-.029-2.2-.029-4.406-.04-6.61,0-.144,0-.287,0-.526" transform="translate(-13.009 -107.587)" fill="#1d357c"/>
    <path id="Trazado_63" data-name="Trazado 63" d="M10.888,87.2c-.083.358-.162.657-.222.961-.067.337-.263.429-.6.424q-2.082-.033-4.165-.021a1.217,1.217,0,0,0-1.379,1.108c.519.083,1.043.148,1.559.254a5.575,5.575,0,0,1,1,.308,1.31,1.31,0,0,1,.875,1.378c-.032,3.443-.014,6.886-.014,10.329,0,1.105-.149,1.354-1.215,1.675-.719.216-1.468.333-2.333.524.179.261.285.555.495.7.716.487,1.459.937,2.209,1.371,1.094.633,1.113.65.9,2.035-.205-.119-.387-.227-.571-.33q-1.282-.718-2.565-1.434a2.964,2.964,0,0,1-1.657-2.1c-.064-.379-.262-.394-.554-.455A17.471,17.471,0,0,1,.7,103.4a1.033,1.033,0,0,1-.7-1.088q.011-4.8.014-9.605,0-.555,0-1.11A1.2,1.2,0,0,1,.939,90.2a11.157,11.157,0,0,1,1.721-.4.628.628,0,0,0,.617-.549,2.4,2.4,0,0,1,2.307-2.041c1.733-.076,3.471-.019,5.3-.019" transform="translate(0 -48.26)" fill="#1d357c"/>
    <path id="Trazado_64" data-name="Trazado 64" d="M180.069,87.227c1.839,0,3.612-.05,5.381.019a2.523,2.523,0,0,1,2.253,2.062c.086.414.286.46.617.526a14.17,14.17,0,0,1,1.869.481,1.083,1.083,0,0,1,.73,1.169c-.027,3.182-.025,6.365-.028,9.548a9.547,9.547,0,0,0,.044,1.108,1.107,1.107,0,0,1-.721,1.29,17.294,17.294,0,0,1-1.687.5,6.758,6.758,0,0,1-.742.115,3.269,3.269,0,0,1-2.041,2.628c-.945.5-1.861,1.046-2.878,1.623a8.8,8.8,0,0,1,.018-1.25.825.825,0,0,1,.384-.477c.727-.439,1.492-.818,2.2-1.277a11.708,11.708,0,0,0,1.226-1.069c-.362-.11-.537-.175-.718-.216-.665-.15-1.346-.246-2-.446-.812-.251-.989-.527-1-1.384-.012-1.536,0-3.071,0-4.607q0-2.914-.007-5.829c0-.993.237-1.382,1.192-1.659.581-.168,1.2-.211,1.8-.325.15-.029.4-.113.408-.181a.6.6,0,0,0-.179-.48,2.951,2.951,0,0,0-1.175-.485c-1.274-.06-2.553-.022-3.829-.019-.994,0-.845-.01-1-.792-.038-.19-.082-.379-.125-.575" transform="translate(-99.684 -48.278)" fill="#1d357c"/>
    <path id="Trazado_65" data-name="Trazado 65" d="M11.218,135.078c.759.427,1.425.861,2.14,1.186a1.152,1.152,0,0,1,.746,1.319c-.125,2.866-.154,5.735-.241,8.6-.083,2.737-.165,5.475-.3,8.21a9.22,9.22,0,0,0,1.3,5.356,2.763,2.763,0,0,1,.121.258H11.218Z" transform="translate(-6.21 -74.778)" fill="#1d357c"/>
    <path id="Trazado_66" data-name="Trazado 66" d="M188.564,135.13v3.936q0,10.25.007,20.5c0,.423-.156.482-.524.473-1.05-.024-2.1-.008-3.2-.008a1.937,1.937,0,0,1,.128-.335,9.275,9.275,0,0,0,1.251-5.309c-.173-3.735-.252-7.475-.37-11.213-.063-2.016-.13-4.033-.179-6.05a.619.619,0,0,1,.191-.477c.868-.514,1.757-.993,2.7-1.516" transform="translate(-102.328 -74.807)" fill="#1d357c"/>
    <path id="Trazado_67" data-name="Trazado 67" d="M129.228,62.13a5.774,5.774,0,1,1-.083,11.547,5.774,5.774,0,1,1,.083-11.547" transform="translate(-68.308 -34.394)" fill="#1d357c"/>
    <path id="Trazado_68" data-name="Trazado 68" d="M118.108,93.628h-5.166a16.09,16.09,0,0,1,1.949-5.684,4.369,4.369,0,0,1,3.142-2.241,1.208,1.208,0,0,1,.844.219A6.764,6.764,0,0,0,127.9,85.9a1.033,1.033,0,0,1,.741-.227,4.191,4.191,0,0,1,2.572,1.4,10.91,10.91,0,0,1,2.152,4.571c.171.637.309,1.282.473,1.967h-5.2a5.1,5.1,0,0,0-2.149-4.05,4.991,4.991,0,0,0-3.439-1.017,5.324,5.324,0,0,0-4.94,5.078" transform="translate(-62.523 -47.426)" fill="#1d357c"/>
    <path id="Trazado_69" data-name="Trazado 69" d="M91.085,56.652h1c2.793,0,5.585.02,8.378,0,.473,0,.612.15.584.6-.036.59.009,1.184-.028,1.774-.008.136-.208.374-.319.374-3.143,0-6.287-.015-9.43-.034a.759.759,0,0,1-.187-.06Z" transform="translate(-50.424 -31.362)" fill="#1d357c"/>
    <path id="Trazado_70" data-name="Trazado 70" d="M128.4,99.319a3.539,3.539,0,0,1,3.273-3.335c1.953-.135,3.442,1.106,3.9,3.335Z" transform="translate(-71.082 -53.13)" fill="#1d357c"/>
  </g>
</svg>
