<?xml version="1.0" encoding="utf-8"?>
<!-- Generator: Adobe Illustrator 23.0.3, SVG Export Plug-In . SVG Version: 6.00 Build 0)  -->
<svg version="1.1" id="Capa_1" xmlns="http://www.w3.org/2000/svg" xmlns:xlink="http://www.w3.org/1999/xlink" x="0px" y="0px"
	 viewBox="0 0 306.25 79.17" style="enable-background:new 0 0 306.25 79.17;" xml:space="preserve">
<style type="text/css">
	.st0{fill:none;stroke:#000000;stroke-width:0.4802;stroke-linecap:round;stroke-linejoin:round;stroke-miterlimit:10;}
</style>
<g>
	<g>
		<path d="M86.17,41.36c0-12.35,9.17-21.82,21.82-21.82c9.59,0,17.74,5.99,20.2,14.75c0.24,1.02-0.3,1.68-1.32,1.68h-7.07
			c-0.84,0-1.32-0.42-1.68-1.2c-1.68-3.66-5.57-5.87-10.13-5.87c-7.43,0-12.23,4.98-12.23,12.47s4.8,12.47,12.23,12.47
			c4.56,0,8.45-2.22,10.13-5.87c0.36-0.78,0.84-1.2,1.68-1.2h7.07c1.02,0,1.56,0.6,1.32,1.56c-2.34,8.75-10.55,14.87-20.2,14.87
			C95.34,63.18,86.17,53.71,86.17,41.36z"/>
		<path d="M134.24,20.38h6.59c0.96,0,1.5,0.54,1.5,1.5v38.96c0,0.96-0.54,1.5-1.5,1.5h-6.59c-0.96,0-1.5-0.54-1.5-1.5V21.88
			C132.74,20.92,133.28,20.38,134.24,20.38z"/>
		<path d="M147.73,41.36c0-12.35,9.17-21.82,21.82-21.82c9.59,0,17.74,5.99,20.2,14.75c0.24,1.02-0.3,1.68-1.32,1.68h-7.07
			c-0.84,0-1.32-0.42-1.68-1.2c-1.68-3.66-5.57-5.87-10.13-5.87c-7.43,0-12.23,4.98-12.23,12.47s4.8,12.47,12.23,12.47
			c4.56,0,8.45-2.22,10.13-5.87c0.36-0.78,0.84-1.2,1.68-1.2h7.07c1.02,0,1.56,0.6,1.32,1.56c-2.34,8.75-10.55,14.87-20.2,14.87
			C156.9,63.18,147.73,53.71,147.73,41.36z"/>
	</g>
	<g>
		<path d="M206.76,23.19c-0.19-0.13-0.38-0.23-0.6-0.31c-0.2-0.08-0.42-0.14-0.64-0.18c-0.23-0.04-0.47-0.05-0.72-0.05
			c-0.25,0-0.49,0.02-0.72,0.05s-0.45,0.1-0.66,0.19c-0.2,0.08-0.4,0.18-0.59,0.31c-0.19,0.13-0.37,0.27-0.53,0.43
			c-0.18,0.18-0.33,0.37-0.46,0.57c-0.13,0.2-0.24,0.42-0.33,0.66c-0.09,0.23-0.16,0.47-0.21,0.72c-0.05,0.25-0.07,0.52-0.07,0.8
			c0,0.28,0.02,0.54,0.07,0.78c0.05,0.25,0.12,0.49,0.21,0.72c0.09,0.23,0.2,0.44,0.33,0.65c0.13,0.21,0.28,0.4,0.46,0.59
			c0.16,0.15,0.34,0.29,0.52,0.41c0.19,0.12,0.38,0.23,0.58,0.32c0.21,0.08,0.43,0.14,0.66,0.18c0.23,0.04,0.47,0.06,0.72,0.06
			c0.27,0,0.52-0.02,0.76-0.07c0.24-0.04,0.47-0.11,0.69-0.19c0.21-0.09,0.41-0.2,0.59-0.33c0.18-0.13,0.35-0.28,0.5-0.46l0.8,0.86
			c-0.22,0.22-0.45,0.41-0.7,0.57c-0.25,0.16-0.51,0.29-0.8,0.41c-0.28,0.09-0.57,0.16-0.88,0.21c-0.31,0.05-0.63,0.08-0.97,0.08
			c-0.33,0-0.66-0.03-0.97-0.08c-0.31-0.05-0.61-0.13-0.89-0.23c-0.28-0.11-0.55-0.25-0.8-0.41c-0.25-0.16-0.48-0.34-0.69-0.54
			c-0.24-0.24-0.44-0.48-0.63-0.75c-0.18-0.26-0.33-0.54-0.46-0.85c-0.12-0.31-0.21-0.62-0.27-0.95S200,26.73,200,26.38
			c0-0.36,0.03-0.7,0.09-1.03c0.06-0.33,0.15-0.64,0.27-0.94c0.12-0.3,0.27-0.58,0.46-0.85c0.18-0.26,0.39-0.51,0.63-0.74
			c0.21-0.21,0.44-0.4,0.69-0.56c0.25-0.16,0.52-0.3,0.8-0.4c0.28-0.11,0.58-0.19,0.89-0.24c0.31-0.05,0.63-0.07,0.97-0.07
			c0.33,0,0.65,0.02,0.95,0.07c0.3,0.05,0.59,0.12,0.86,0.22c0.27,0.1,0.52,0.22,0.77,0.37s0.47,0.32,0.69,0.52l-0.78,0.88
			C207.12,23.45,206.94,23.31,206.76,23.19z"/>
		<path d="M212.95,31.1c-0.31-0.05-0.6-0.13-0.89-0.23c-0.28-0.11-0.54-0.24-0.79-0.4s-0.49-0.35-0.71-0.56
			c-0.24-0.24-0.44-0.48-0.63-0.75c-0.18-0.26-0.33-0.54-0.46-0.85c-0.12-0.3-0.21-0.61-0.27-0.94s-0.09-0.66-0.09-1.01
			c0-0.36,0.03-0.7,0.1-1.02c0.06-0.32,0.16-0.64,0.28-0.94c0.12-0.31,0.27-0.59,0.46-0.86c0.18-0.26,0.39-0.51,0.63-0.74
			c0.21-0.21,0.44-0.4,0.69-0.56s0.52-0.3,0.8-0.4c0.28-0.11,0.58-0.19,0.89-0.24c0.31-0.05,0.63-0.07,0.96-0.07
			c0.34,0,0.67,0.02,0.98,0.07c0.31,0.05,0.61,0.13,0.88,0.24c0.28,0.11,0.55,0.24,0.8,0.4c0.25,0.16,0.48,0.35,0.69,0.56
			c0.24,0.23,0.44,0.47,0.63,0.74c0.18,0.26,0.33,0.55,0.46,0.86c0.12,0.3,0.21,0.61,0.27,0.94c0.06,0.32,0.09,0.67,0.09,1.02
			c0,0.35-0.03,0.69-0.09,1.01c-0.06,0.32-0.15,0.64-0.27,0.94c-0.12,0.3-0.27,0.58-0.45,0.85c-0.18,0.26-0.39,0.51-0.62,0.75
			c-0.22,0.21-0.45,0.4-0.7,0.56c-0.25,0.16-0.51,0.3-0.8,0.4c-0.28,0.1-0.57,0.17-0.88,0.23c-0.31,0.05-0.64,0.08-0.99,0.08
			C213.58,31.18,213.25,31.16,212.95,31.1z M213.91,30.09c0.26,0.01,0.51-0.01,0.74-0.05c0.23-0.04,0.45-0.1,0.66-0.18
			c0.21-0.08,0.41-0.18,0.6-0.31c0.19-0.13,0.36-0.27,0.52-0.42c0.17-0.18,0.32-0.37,0.46-0.58s0.25-0.42,0.33-0.65
			c0.09-0.23,0.16-0.48,0.2-0.73c0.04-0.25,0.07-0.51,0.07-0.79c0-0.28-0.02-0.54-0.07-0.79c-0.04-0.25-0.11-0.49-0.2-0.73
			c-0.09-0.23-0.2-0.45-0.33-0.66c-0.13-0.2-0.29-0.39-0.47-0.57c-0.16-0.16-0.34-0.31-0.52-0.43c-0.19-0.13-0.39-0.23-0.6-0.31
			c-0.21-0.09-0.43-0.15-0.66-0.19c-0.23-0.04-0.47-0.05-0.73-0.05c-0.24,0-0.48,0.02-0.71,0.05c-0.23,0.04-0.45,0.1-0.66,0.19
			c-0.2,0.08-0.4,0.18-0.58,0.31c-0.19,0.13-0.36,0.27-0.52,0.43c-0.17,0.17-0.32,0.36-0.46,0.56s-0.25,0.42-0.33,0.66
			c-0.09,0.24-0.16,0.48-0.21,0.73c-0.05,0.25-0.07,0.52-0.07,0.8c0,0.28,0.02,0.54,0.07,0.79c0.05,0.25,0.12,0.49,0.21,0.73
			c0.09,0.23,0.2,0.44,0.33,0.65s0.29,0.4,0.46,0.58c0.16,0.15,0.34,0.29,0.52,0.42c0.19,0.13,0.38,0.23,0.58,0.31
			c0.21,0.08,0.43,0.14,0.66,0.18c0.23,0.04,0.47,0.06,0.72,0.06V30.09z"/>
		<path d="M220.48,21.71h1.14l4.5,6.43c0.05,0.06,0.09,0.13,0.13,0.19c0.04,0.06,0.08,0.12,0.12,0.19c0.02,0.03,0.05,0.07,0.07,0.1
			c0.02,0.04,0.04,0.07,0.05,0.1c0.06,0.1,0.11,0.2,0.16,0.32c0.05,0.11,0.1,0.23,0.15,0.35c-0.03-0.14-0.06-0.27-0.09-0.41
			s-0.05-0.27-0.08-0.4c-0.02-0.12-0.03-0.24-0.04-0.35c-0.01-0.11-0.02-0.22-0.02-0.32v-6.21h1.19V31h-0.98l-4.72-6.7
			c-0.08-0.12-0.15-0.23-0.22-0.33c-0.06-0.1-0.12-0.19-0.16-0.27c-0.04-0.08-0.08-0.16-0.11-0.24c-0.03-0.08-0.06-0.16-0.1-0.24
			c0.04,0.16,0.07,0.32,0.1,0.47c0.02,0.15,0.04,0.29,0.06,0.43c0.02,0.13,0.03,0.26,0.04,0.4c0.01,0.13,0.01,0.26,0.01,0.38V31
			h-1.19V21.71z"/>
		<path d="M230.74,29.09c0.08,0.21,0.21,0.4,0.37,0.56c0.17,0.15,0.37,0.27,0.6,0.35c0.23,0.08,0.49,0.12,0.78,0.12
			c0.27,0,0.51-0.03,0.72-0.1c0.21-0.06,0.4-0.16,0.57-0.29c0.16-0.14,0.28-0.29,0.36-0.47c0.08-0.17,0.12-0.37,0.12-0.58
			s-0.03-0.4-0.1-0.57c-0.07-0.17-0.16-0.32-0.28-0.45c-0.07-0.06-0.15-0.13-0.24-0.19c-0.1-0.06-0.21-0.13-0.34-0.19
			s-0.28-0.13-0.44-0.19c-0.17-0.06-0.35-0.13-0.54-0.19c-0.03-0.02-0.07-0.03-0.12-0.04s-0.11-0.03-0.17-0.05
			c-0.4-0.14-0.74-0.28-1.02-0.41c-0.28-0.14-0.52-0.28-0.71-0.44c-0.13-0.11-0.25-0.24-0.35-0.36c-0.1-0.13-0.18-0.27-0.25-0.43
			c-0.06-0.16-0.11-0.33-0.15-0.5s-0.05-0.36-0.05-0.57c0-0.38,0.06-0.73,0.19-1.03s0.31-0.58,0.57-0.8
			c0.26-0.23,0.56-0.41,0.9-0.52c0.34-0.11,0.72-0.16,1.15-0.16c0.45,0,0.86,0.06,1.22,0.18c0.36,0.12,0.67,0.3,0.94,0.55
			c0.27,0.25,0.47,0.55,0.62,0.89c0.15,0.34,0.23,0.73,0.26,1.18l-1.23-0.01c-0.03-0.29-0.09-0.55-0.19-0.77
			c-0.09-0.22-0.21-0.41-0.36-0.55c-0.15-0.15-0.33-0.27-0.54-0.34c-0.21-0.07-0.44-0.11-0.7-0.11c-0.25,0-0.48,0.03-0.67,0.1
			c-0.2,0.07-0.38,0.17-0.53,0.31c-0.15,0.13-0.27,0.29-0.35,0.47c-0.08,0.18-0.12,0.39-0.12,0.63c0,0.11,0.01,0.22,0.04,0.33
			s0.06,0.2,0.1,0.29c0.04,0.09,0.09,0.17,0.15,0.24c0.06,0.07,0.13,0.14,0.21,0.21c0.06,0.04,0.13,0.08,0.21,0.13
			c0.08,0.04,0.17,0.09,0.27,0.13c0.1,0.05,0.21,0.1,0.33,0.14c0.12,0.04,0.25,0.09,0.39,0.13c0.08,0.02,0.15,0.04,0.21,0.06
			c0.06,0.02,0.11,0.03,0.15,0.05c0.53,0.18,0.97,0.37,1.33,0.57c0.36,0.2,0.64,0.4,0.85,0.61c0.2,0.2,0.35,0.44,0.45,0.72
			c0.1,0.28,0.15,0.59,0.15,0.93c0,0.37-0.07,0.72-0.21,1.03c-0.14,0.31-0.35,0.59-0.64,0.83c-0.28,0.24-0.61,0.42-0.97,0.54
			c-0.36,0.12-0.76,0.18-1.21,0.18c-0.45,0-0.85-0.06-1.2-0.18c-0.36-0.12-0.67-0.3-0.95-0.55c-0.28-0.24-0.49-0.54-0.64-0.88
			c-0.15-0.34-0.25-0.73-0.29-1.16l1.23-0.06C230.61,28.63,230.66,28.88,230.74,29.09z"/>
		<path d="M240.66,31.1c-0.31-0.05-0.6-0.13-0.89-0.23c-0.28-0.11-0.54-0.24-0.79-0.4s-0.49-0.35-0.71-0.56
			c-0.24-0.24-0.44-0.48-0.63-0.75c-0.18-0.26-0.33-0.54-0.46-0.85c-0.12-0.3-0.21-0.61-0.27-0.94s-0.09-0.66-0.09-1.01
			c0-0.36,0.03-0.7,0.1-1.02c0.06-0.32,0.16-0.64,0.28-0.94c0.12-0.31,0.27-0.59,0.46-0.86c0.18-0.26,0.39-0.51,0.63-0.74
			c0.21-0.21,0.44-0.4,0.69-0.56s0.52-0.3,0.8-0.4c0.28-0.11,0.58-0.19,0.89-0.24c0.31-0.05,0.63-0.07,0.96-0.07
			c0.34,0,0.67,0.02,0.98,0.07c0.31,0.05,0.61,0.13,0.88,0.24c0.28,0.11,0.55,0.24,0.8,0.4c0.25,0.16,0.48,0.35,0.69,0.56
			c0.24,0.23,0.44,0.47,0.63,0.74c0.18,0.26,0.33,0.55,0.46,0.86c0.12,0.3,0.21,0.61,0.27,0.94c0.06,0.32,0.09,0.67,0.09,1.02
			c0,0.35-0.03,0.69-0.09,1.01c-0.06,0.32-0.15,0.64-0.27,0.94c-0.12,0.3-0.27,0.58-0.45,0.85c-0.18,0.26-0.39,0.51-0.62,0.75
			c-0.22,0.21-0.45,0.4-0.7,0.56c-0.25,0.16-0.51,0.3-0.8,0.4c-0.28,0.1-0.57,0.17-0.88,0.23c-0.31,0.05-0.64,0.08-0.99,0.08
			C241.29,31.18,240.97,31.16,240.66,31.1z M241.62,30.09c0.26,0.01,0.51-0.01,0.74-0.05c0.23-0.04,0.45-0.1,0.66-0.18
			c0.21-0.08,0.41-0.18,0.6-0.31c0.19-0.13,0.36-0.27,0.52-0.42c0.17-0.18,0.32-0.37,0.46-0.58s0.25-0.42,0.33-0.65
			c0.09-0.23,0.16-0.48,0.2-0.73c0.04-0.25,0.07-0.51,0.07-0.79c0-0.28-0.02-0.54-0.07-0.79c-0.04-0.25-0.11-0.49-0.2-0.73
			c-0.09-0.23-0.2-0.45-0.33-0.66c-0.13-0.2-0.29-0.39-0.47-0.57c-0.16-0.16-0.34-0.31-0.52-0.43c-0.19-0.13-0.39-0.23-0.6-0.31
			c-0.21-0.09-0.43-0.15-0.66-0.19c-0.23-0.04-0.47-0.05-0.73-0.05c-0.24,0-0.48,0.02-0.71,0.05c-0.23,0.04-0.45,0.1-0.66,0.19
			c-0.2,0.08-0.4,0.18-0.58,0.31c-0.19,0.13-0.36,0.27-0.52,0.43c-0.17,0.17-0.32,0.36-0.46,0.56s-0.25,0.42-0.33,0.66
			c-0.09,0.24-0.16,0.48-0.21,0.73c-0.05,0.25-0.07,0.52-0.07,0.8c0,0.28,0.02,0.54,0.07,0.79c0.05,0.25,0.12,0.49,0.21,0.73
			c0.09,0.23,0.2,0.44,0.33,0.65s0.29,0.4,0.46,0.58c0.16,0.15,0.34,0.29,0.52,0.42c0.19,0.13,0.38,0.23,0.58,0.31
			c0.21,0.08,0.43,0.14,0.66,0.18c0.23,0.04,0.47,0.06,0.72,0.06V30.09z"/>
		<path d="M248.2,21.71h2.13c0.56,0.01,1.06,0.08,1.49,0.2c0.43,0.13,0.8,0.31,1.1,0.55c0.31,0.25,0.54,0.55,0.69,0.89
			c0.15,0.34,0.22,0.74,0.22,1.19c0,0.42-0.06,0.8-0.19,1.14c-0.13,0.34-0.32,0.64-0.58,0.91c-0.26,0.28-0.56,0.48-0.89,0.61
			c-0.34,0.13-0.71,0.2-1.13,0.2l-0.07-0.01l3.27,3.6h-1.52l-3.3-3.78V31h-1.22V21.71z M250.27,26.48c0.38,0.01,0.71-0.03,1-0.11
			c0.28-0.08,0.53-0.2,0.73-0.36c0.19-0.16,0.34-0.36,0.44-0.6c0.1-0.24,0.15-0.51,0.15-0.81c0-0.29-0.05-0.55-0.15-0.77
			c-0.1-0.22-0.25-0.4-0.46-0.55c-0.2-0.15-0.45-0.27-0.75-0.34c-0.3-0.07-0.64-0.11-1.03-0.11l-0.8-0.01v3.66H250.27z"/>
		<path d="M261.91,23.19c-0.19-0.13-0.38-0.23-0.6-0.31c-0.2-0.08-0.42-0.14-0.64-0.18c-0.23-0.04-0.47-0.05-0.72-0.05
			c-0.25,0-0.49,0.02-0.72,0.05s-0.45,0.1-0.66,0.19c-0.2,0.08-0.4,0.18-0.59,0.31c-0.19,0.13-0.37,0.27-0.53,0.43
			c-0.18,0.18-0.33,0.37-0.46,0.57c-0.13,0.2-0.24,0.42-0.33,0.66c-0.09,0.23-0.16,0.47-0.21,0.72c-0.05,0.25-0.07,0.52-0.07,0.8
			c0,0.28,0.02,0.54,0.07,0.78c0.05,0.25,0.12,0.49,0.21,0.72c0.09,0.23,0.2,0.44,0.33,0.65c0.13,0.21,0.28,0.4,0.46,0.59
			c0.16,0.15,0.34,0.29,0.52,0.41c0.19,0.12,0.38,0.23,0.58,0.32c0.21,0.08,0.43,0.14,0.66,0.18c0.23,0.04,0.47,0.06,0.72,0.06
			c0.27,0,0.52-0.02,0.76-0.07c0.24-0.04,0.47-0.11,0.69-0.19c0.21-0.09,0.41-0.2,0.59-0.33c0.18-0.13,0.35-0.28,0.5-0.46l0.8,0.86
			c-0.22,0.22-0.45,0.41-0.7,0.57c-0.25,0.16-0.51,0.29-0.8,0.41c-0.28,0.09-0.57,0.16-0.88,0.21c-0.31,0.05-0.63,0.08-0.97,0.08
			c-0.33,0-0.66-0.03-0.97-0.08c-0.31-0.05-0.61-0.13-0.89-0.23c-0.28-0.11-0.55-0.25-0.8-0.41c-0.25-0.16-0.48-0.34-0.69-0.54
			c-0.24-0.24-0.44-0.48-0.63-0.75c-0.18-0.26-0.33-0.54-0.46-0.85c-0.12-0.31-0.21-0.62-0.27-0.95s-0.09-0.66-0.09-1.01
			c0-0.36,0.03-0.7,0.09-1.03c0.06-0.33,0.15-0.64,0.27-0.94c0.12-0.3,0.27-0.58,0.46-0.85c0.18-0.26,0.39-0.51,0.63-0.74
			c0.21-0.21,0.44-0.4,0.69-0.56c0.25-0.16,0.52-0.3,0.8-0.4c0.28-0.11,0.58-0.19,0.89-0.24c0.31-0.05,0.63-0.07,0.97-0.07
			c0.33,0,0.65,0.02,0.95,0.07c0.3,0.05,0.59,0.12,0.86,0.22c0.27,0.1,0.52,0.22,0.77,0.37s0.47,0.32,0.69,0.52l-0.78,0.88
			C262.28,23.45,262.1,23.31,261.91,23.19z"/>
		<path d="M264.81,21.71h1.22V31h-1.22V21.71z"/>
		<path d="M271.47,31.1c-0.31-0.05-0.6-0.13-0.89-0.23c-0.28-0.11-0.54-0.24-0.79-0.4s-0.49-0.35-0.71-0.56
			c-0.24-0.24-0.44-0.48-0.63-0.75c-0.18-0.26-0.33-0.54-0.46-0.85c-0.12-0.3-0.21-0.61-0.27-0.94s-0.09-0.66-0.09-1.01
			c0-0.36,0.03-0.7,0.1-1.02c0.06-0.32,0.16-0.64,0.28-0.94c0.12-0.31,0.27-0.59,0.46-0.86c0.18-0.26,0.39-0.51,0.63-0.74
			c0.21-0.21,0.44-0.4,0.69-0.56s0.52-0.3,0.8-0.4c0.28-0.11,0.58-0.19,0.89-0.24c0.31-0.05,0.63-0.07,0.96-0.07
			c0.34,0,0.67,0.02,0.98,0.07c0.31,0.05,0.61,0.13,0.88,0.24c0.28,0.11,0.55,0.24,0.8,0.4c0.25,0.16,0.48,0.35,0.69,0.56
			c0.24,0.23,0.44,0.47,0.63,0.74c0.18,0.26,0.33,0.55,0.46,0.86c0.12,0.3,0.21,0.61,0.27,0.94c0.06,0.32,0.09,0.67,0.09,1.02
			c0,0.35-0.03,0.69-0.09,1.01c-0.06,0.32-0.15,0.64-0.27,0.94c-0.12,0.3-0.27,0.58-0.45,0.85c-0.18,0.26-0.39,0.51-0.62,0.75
			c-0.22,0.21-0.45,0.4-0.7,0.56c-0.25,0.16-0.51,0.3-0.8,0.4c-0.28,0.1-0.57,0.17-0.88,0.23c-0.31,0.05-0.64,0.08-0.99,0.08
			C272.1,31.18,271.78,31.16,271.47,31.1z M272.43,30.09c0.26,0.01,0.51-0.01,0.74-0.05c0.23-0.04,0.45-0.1,0.66-0.18
			c0.21-0.08,0.41-0.18,0.6-0.31c0.19-0.13,0.36-0.27,0.52-0.42c0.17-0.18,0.32-0.37,0.46-0.58s0.25-0.42,0.33-0.65
			c0.09-0.23,0.16-0.48,0.2-0.73c0.04-0.25,0.07-0.51,0.07-0.79c0-0.28-0.02-0.54-0.07-0.79c-0.04-0.25-0.11-0.49-0.2-0.73
			c-0.09-0.23-0.2-0.45-0.33-0.66c-0.13-0.2-0.29-0.39-0.47-0.57c-0.16-0.16-0.34-0.31-0.52-0.43c-0.19-0.13-0.39-0.23-0.6-0.31
			c-0.21-0.09-0.43-0.15-0.66-0.19c-0.23-0.04-0.47-0.05-0.73-0.05c-0.24,0-0.48,0.02-0.71,0.05c-0.23,0.04-0.45,0.1-0.66,0.19
			c-0.2,0.08-0.4,0.18-0.58,0.31c-0.19,0.13-0.36,0.27-0.52,0.43c-0.17,0.17-0.32,0.36-0.46,0.56s-0.25,0.42-0.33,0.66
			c-0.09,0.24-0.16,0.48-0.21,0.73c-0.05,0.25-0.07,0.52-0.07,0.8c0,0.28,0.02,0.54,0.07,0.79c0.05,0.25,0.12,0.49,0.21,0.73
			c0.09,0.23,0.2,0.44,0.33,0.65s0.29,0.4,0.46,0.58c0.16,0.15,0.34,0.29,0.52,0.42c0.19,0.13,0.38,0.23,0.58,0.31
			c0.21,0.08,0.43,0.14,0.66,0.18c0.23,0.04,0.47,0.06,0.72,0.06V30.09z"/>
		<path d="M200.53,36.3h1.22v9.29h-1.22V36.3z"/>
		<path d="M203.9,36.3h1.14l4.5,6.43c0.05,0.07,0.09,0.13,0.13,0.19c0.04,0.06,0.08,0.12,0.12,0.19c0.02,0.03,0.05,0.07,0.07,0.1
			s0.04,0.07,0.05,0.1c0.06,0.1,0.11,0.2,0.16,0.32c0.05,0.11,0.1,0.23,0.15,0.35c-0.03-0.14-0.06-0.27-0.09-0.41
			s-0.05-0.27-0.08-0.4c-0.02-0.12-0.03-0.24-0.04-0.35c-0.01-0.11-0.02-0.22-0.02-0.32V36.3h1.19v9.29h-0.98l-4.72-6.7
			c-0.08-0.12-0.15-0.23-0.22-0.33c-0.06-0.1-0.12-0.19-0.16-0.27c-0.04-0.08-0.08-0.16-0.11-0.24c-0.03-0.08-0.06-0.16-0.1-0.24
			c0.04,0.16,0.07,0.32,0.1,0.47c0.02,0.15,0.04,0.29,0.06,0.43c0.02,0.13,0.03,0.26,0.04,0.4c0.01,0.13,0.01,0.26,0.01,0.38v6.1
			h-1.19V36.3z"/>
		<path d="M214.71,37.41h-2.38V36.3h5.96v1.11h-2.37v8.18h-1.2V37.41z"/>
		<path d="M219.44,36.3h4.83v1.11h-3.61v2.89h3.61v1.07h-3.61v3.14h3.61v1.08h-4.83V36.3z"/>
		<path d="M226.35,36.3h2.13c0.56,0.01,1.06,0.08,1.49,0.2c0.43,0.13,0.8,0.31,1.1,0.55c0.31,0.25,0.54,0.55,0.69,0.89
			c0.15,0.34,0.22,0.74,0.22,1.19c0,0.42-0.06,0.8-0.19,1.14c-0.13,0.34-0.32,0.64-0.58,0.91c-0.26,0.28-0.56,0.48-0.89,0.61
			c-0.34,0.13-0.71,0.2-1.13,0.2l-0.07-0.01l3.27,3.6h-1.52l-3.3-3.78v3.78h-1.22V36.3z M228.42,41.07c0.38,0.01,0.71-0.03,1-0.11
			c0.28-0.08,0.53-0.2,0.73-0.36c0.19-0.16,0.34-0.36,0.44-0.6s0.15-0.51,0.15-0.81c0-0.29-0.05-0.55-0.15-0.77
			c-0.1-0.22-0.25-0.4-0.46-0.55c-0.2-0.15-0.45-0.27-0.75-0.34c-0.3-0.07-0.64-0.11-1.03-0.11l-0.8-0.01v3.66H228.42z"/>
		<path d="M233.84,36.3h1.14l4.5,6.43c0.05,0.07,0.09,0.13,0.13,0.19c0.04,0.06,0.08,0.12,0.12,0.19c0.02,0.03,0.05,0.07,0.07,0.1
			s0.04,0.07,0.05,0.1c0.06,0.1,0.11,0.2,0.16,0.32c0.05,0.11,0.1,0.23,0.15,0.35c-0.03-0.14-0.06-0.27-0.09-0.41
			s-0.05-0.27-0.08-0.4c-0.02-0.12-0.03-0.24-0.04-0.35c-0.01-0.11-0.02-0.22-0.02-0.32V36.3h1.19v9.29h-0.98l-4.72-6.7
			c-0.08-0.12-0.15-0.23-0.22-0.33c-0.06-0.1-0.12-0.19-0.16-0.27c-0.04-0.08-0.08-0.16-0.11-0.24c-0.03-0.08-0.06-0.16-0.1-0.24
			c0.04,0.16,0.07,0.32,0.1,0.47c0.02,0.15,0.04,0.29,0.06,0.43c0.02,0.13,0.03,0.26,0.04,0.4c0.01,0.13,0.01,0.26,0.01,0.38v6.1
			h-1.19V36.3z"/>
		<path d="M246.02,36.29h1.01l3.93,9.3h-1.42l-0.81-2.14h-4.37l-0.84,2.14h-1.29L246.02,36.29z M248.27,42.35l-1.46-3.73
			c-0.01-0.02-0.02-0.05-0.04-0.1c-0.02-0.05-0.04-0.12-0.07-0.2c-0.02-0.08-0.05-0.17-0.07-0.26c-0.02-0.09-0.06-0.19-0.1-0.29
			c-0.03,0.11-0.06,0.2-0.08,0.29c-0.02,0.09-0.05,0.17-0.07,0.26c-0.03,0.08-0.06,0.15-0.07,0.19c-0.02,0.05-0.03,0.09-0.05,0.12
			l-1.48,3.72H248.27z"/>
		<path d="M258.08,37.78c-0.19-0.13-0.38-0.23-0.6-0.31c-0.2-0.08-0.42-0.14-0.64-0.18c-0.23-0.04-0.47-0.05-0.72-0.05
			c-0.25,0-0.49,0.02-0.72,0.05s-0.45,0.1-0.66,0.19c-0.2,0.08-0.4,0.18-0.59,0.31c-0.19,0.13-0.37,0.27-0.53,0.43
			c-0.18,0.18-0.33,0.37-0.46,0.57c-0.13,0.2-0.24,0.42-0.33,0.66c-0.09,0.23-0.16,0.47-0.21,0.72s-0.07,0.52-0.07,0.8
			c0,0.28,0.02,0.54,0.07,0.78s0.12,0.49,0.21,0.72c0.09,0.23,0.2,0.44,0.33,0.65s0.28,0.4,0.46,0.59c0.16,0.15,0.34,0.29,0.52,0.41
			c0.19,0.12,0.38,0.23,0.58,0.32c0.21,0.08,0.43,0.14,0.66,0.18c0.23,0.04,0.47,0.06,0.72,0.06c0.27,0,0.52-0.02,0.76-0.07
			c0.24-0.04,0.47-0.11,0.69-0.19c0.21-0.09,0.41-0.2,0.59-0.33c0.18-0.13,0.35-0.28,0.5-0.46l0.8,0.86
			c-0.22,0.22-0.45,0.41-0.7,0.57s-0.51,0.29-0.8,0.41c-0.28,0.09-0.57,0.16-0.88,0.21c-0.31,0.05-0.63,0.08-0.97,0.08
			c-0.33,0-0.66-0.03-0.97-0.08c-0.31-0.05-0.61-0.13-0.89-0.22c-0.28-0.11-0.55-0.25-0.8-0.41c-0.25-0.16-0.48-0.34-0.69-0.54
			c-0.24-0.24-0.44-0.48-0.63-0.75s-0.33-0.54-0.46-0.85c-0.12-0.31-0.21-0.62-0.27-0.95s-0.09-0.66-0.09-1.01
			c0-0.36,0.03-0.7,0.09-1.03c0.06-0.33,0.15-0.64,0.27-0.94c0.12-0.3,0.27-0.58,0.46-0.85c0.18-0.26,0.39-0.51,0.63-0.74
			c0.21-0.21,0.44-0.4,0.69-0.56c0.25-0.16,0.52-0.3,0.8-0.4c0.28-0.11,0.58-0.19,0.89-0.24c0.31-0.05,0.63-0.07,0.97-0.07
			c0.33,0,0.65,0.02,0.95,0.07c0.3,0.05,0.59,0.12,0.86,0.22c0.27,0.1,0.52,0.22,0.77,0.37s0.47,0.32,0.69,0.52l-0.78,0.88
			C258.45,38.05,258.27,37.91,258.08,37.78z"/>
		<path d="M260.98,36.3h1.22v9.29h-1.22V36.3z"/>
		<path d="M267.64,45.7c-0.31-0.05-0.6-0.13-0.89-0.22c-0.28-0.11-0.54-0.24-0.79-0.4s-0.49-0.35-0.71-0.56
			c-0.24-0.24-0.44-0.48-0.63-0.75c-0.18-0.26-0.33-0.54-0.46-0.84c-0.12-0.3-0.21-0.61-0.27-0.94s-0.09-0.66-0.09-1.01
			c0-0.36,0.03-0.7,0.1-1.02c0.06-0.32,0.16-0.64,0.28-0.94c0.12-0.31,0.27-0.59,0.46-0.86c0.18-0.26,0.39-0.51,0.63-0.74
			c0.21-0.21,0.44-0.4,0.69-0.56s0.52-0.3,0.8-0.4c0.28-0.11,0.58-0.19,0.89-0.24c0.31-0.05,0.63-0.07,0.96-0.07
			c0.34,0,0.67,0.02,0.98,0.07c0.31,0.05,0.61,0.13,0.88,0.24c0.28,0.11,0.55,0.24,0.8,0.4c0.25,0.16,0.48,0.35,0.69,0.56
			c0.24,0.23,0.44,0.47,0.63,0.74c0.18,0.26,0.33,0.55,0.46,0.86c0.12,0.3,0.21,0.61,0.27,0.94c0.06,0.32,0.09,0.67,0.09,1.02
			c0,0.35-0.03,0.68-0.09,1.01c-0.06,0.32-0.15,0.64-0.27,0.94c-0.12,0.3-0.27,0.58-0.45,0.84c-0.18,0.26-0.39,0.51-0.62,0.75
			c-0.22,0.21-0.45,0.4-0.7,0.56c-0.25,0.16-0.51,0.3-0.8,0.4c-0.28,0.1-0.57,0.17-0.88,0.22c-0.31,0.05-0.64,0.08-0.99,0.08
			C268.27,45.77,267.95,45.75,267.64,45.7z M268.6,44.68c0.26,0.01,0.51-0.01,0.74-0.05c0.23-0.04,0.45-0.1,0.66-0.18
			c0.21-0.08,0.41-0.18,0.6-0.31c0.19-0.13,0.36-0.26,0.52-0.42c0.17-0.18,0.32-0.37,0.46-0.58c0.13-0.21,0.25-0.42,0.33-0.65
			c0.09-0.23,0.16-0.48,0.2-0.73c0.04-0.25,0.07-0.51,0.07-0.79s-0.02-0.54-0.07-0.79c-0.04-0.25-0.11-0.49-0.2-0.73
			c-0.09-0.23-0.2-0.45-0.33-0.66c-0.13-0.2-0.29-0.39-0.47-0.57c-0.16-0.16-0.34-0.31-0.52-0.43c-0.19-0.13-0.39-0.23-0.6-0.31
			c-0.21-0.09-0.43-0.15-0.66-0.19c-0.23-0.04-0.47-0.05-0.73-0.05c-0.24,0-0.48,0.02-0.71,0.05c-0.23,0.04-0.45,0.1-0.66,0.19
			c-0.2,0.08-0.4,0.18-0.58,0.31c-0.19,0.13-0.36,0.27-0.52,0.43c-0.17,0.17-0.32,0.36-0.46,0.56s-0.25,0.42-0.33,0.66
			c-0.09,0.24-0.16,0.48-0.21,0.73s-0.07,0.52-0.07,0.8c0,0.28,0.02,0.54,0.07,0.79s0.12,0.5,0.21,0.73
			c0.09,0.23,0.2,0.44,0.33,0.65c0.13,0.21,0.29,0.4,0.46,0.58c0.16,0.15,0.34,0.29,0.52,0.42c0.19,0.13,0.38,0.23,0.58,0.31
			c0.21,0.08,0.43,0.14,0.66,0.18c0.23,0.04,0.47,0.06,0.72,0.06V44.68z"/>
		<path d="M275.18,36.3h1.14l4.5,6.43c0.05,0.07,0.09,0.13,0.13,0.19c0.04,0.06,0.08,0.12,0.12,0.19c0.02,0.03,0.05,0.07,0.07,0.1
			s0.04,0.07,0.05,0.1c0.06,0.1,0.11,0.2,0.16,0.32c0.05,0.11,0.1,0.23,0.15,0.35c-0.03-0.14-0.06-0.27-0.09-0.41
			s-0.05-0.27-0.08-0.4c-0.02-0.12-0.03-0.24-0.04-0.35c-0.01-0.11-0.02-0.22-0.02-0.32V36.3h1.19v9.29h-0.98l-4.72-6.7
			c-0.08-0.12-0.15-0.23-0.22-0.33c-0.06-0.1-0.12-0.19-0.16-0.27c-0.04-0.08-0.08-0.16-0.11-0.24c-0.03-0.08-0.06-0.16-0.1-0.24
			c0.04,0.16,0.07,0.32,0.1,0.47c0.02,0.15,0.04,0.29,0.06,0.43c0.02,0.13,0.03,0.26,0.04,0.4c0.01,0.13,0.01,0.26,0.01,0.38v6.1
			h-1.19V36.3z"/>
		<path d="M287.36,36.29h1.01l3.93,9.3h-1.42l-0.81-2.14h-4.37l-0.84,2.14h-1.29L287.36,36.29z M289.61,42.35l-1.46-3.73
			c-0.01-0.02-0.02-0.05-0.04-0.1c-0.02-0.05-0.04-0.12-0.07-0.2c-0.02-0.08-0.05-0.17-0.07-0.26c-0.02-0.09-0.06-0.19-0.1-0.29
			c-0.03,0.11-0.06,0.2-0.08,0.29c-0.02,0.09-0.05,0.17-0.07,0.26c-0.03,0.08-0.06,0.15-0.07,0.19c-0.02,0.05-0.03,0.09-0.05,0.12
			l-1.48,3.72H289.61z"/>
		<path d="M293.4,36.3h1.22v8.17h3.2v1.12h-4.41V36.3z"/>
		<path d="M206.76,52.37c-0.19-0.13-0.38-0.23-0.6-0.31c-0.2-0.08-0.42-0.14-0.64-0.18c-0.23-0.04-0.47-0.05-0.72-0.05
			c-0.25,0-0.49,0.02-0.72,0.05c-0.23,0.04-0.45,0.1-0.66,0.19c-0.2,0.08-0.4,0.18-0.59,0.31c-0.19,0.13-0.37,0.27-0.53,0.43
			c-0.18,0.18-0.33,0.37-0.46,0.57c-0.13,0.2-0.24,0.42-0.33,0.66c-0.09,0.23-0.16,0.47-0.21,0.72c-0.05,0.25-0.07,0.52-0.07,0.8
			c0,0.28,0.02,0.54,0.07,0.78c0.05,0.25,0.12,0.49,0.21,0.72c0.09,0.23,0.2,0.44,0.33,0.65c0.13,0.21,0.28,0.4,0.46,0.59
			c0.16,0.15,0.34,0.29,0.52,0.41c0.19,0.12,0.38,0.23,0.58,0.32c0.21,0.08,0.43,0.14,0.66,0.18c0.23,0.04,0.47,0.06,0.72,0.06
			c0.27,0,0.52-0.02,0.76-0.07s0.47-0.11,0.69-0.19c0.21-0.09,0.41-0.2,0.59-0.33s0.35-0.28,0.5-0.46l0.8,0.86
			c-0.22,0.22-0.45,0.41-0.7,0.57c-0.25,0.16-0.51,0.29-0.8,0.41c-0.28,0.09-0.57,0.16-0.88,0.21c-0.31,0.05-0.63,0.08-0.97,0.08
			c-0.33,0-0.66-0.03-0.97-0.08c-0.31-0.05-0.61-0.13-0.89-0.23c-0.28-0.11-0.55-0.25-0.8-0.41c-0.25-0.16-0.48-0.34-0.69-0.54
			c-0.24-0.24-0.44-0.48-0.63-0.75c-0.18-0.26-0.33-0.54-0.46-0.84c-0.12-0.31-0.21-0.62-0.27-0.95S200,55.91,200,55.56
			c0-0.36,0.03-0.7,0.09-1.03s0.15-0.64,0.27-0.94c0.12-0.3,0.27-0.58,0.46-0.84s0.39-0.51,0.63-0.74c0.21-0.21,0.44-0.4,0.69-0.56
			c0.25-0.16,0.52-0.3,0.8-0.4c0.28-0.11,0.58-0.19,0.89-0.24c0.31-0.05,0.63-0.07,0.97-0.07c0.33,0,0.65,0.02,0.95,0.07
			s0.59,0.12,0.86,0.22c0.27,0.1,0.52,0.22,0.77,0.37c0.24,0.15,0.47,0.32,0.69,0.52l-0.78,0.88
			C207.12,52.64,206.94,52.5,206.76,52.37z"/>
		<path d="M214.88,50.88h1.01l3.93,9.3h-1.42l-0.81-2.14h-4.37l-0.84,2.14h-1.29L214.88,50.88z M217.13,56.94l-1.46-3.73
			c-0.01-0.02-0.02-0.05-0.04-0.1c-0.02-0.05-0.04-0.12-0.07-0.2c-0.02-0.08-0.05-0.17-0.07-0.25s-0.06-0.19-0.1-0.29
			c-0.03,0.11-0.06,0.2-0.08,0.29s-0.05,0.17-0.07,0.25c-0.03,0.08-0.06,0.15-0.07,0.2c-0.02,0.05-0.03,0.09-0.05,0.12l-1.48,3.72
			H217.13z"/>
		<path d="M223.35,50.89h1.98c0.54,0.01,1.02,0.08,1.44,0.22c0.43,0.14,0.8,0.35,1.11,0.63c0.32,0.28,0.55,0.6,0.71,0.97
			s0.24,0.79,0.24,1.25c0,0.45-0.08,0.85-0.23,1.22c-0.15,0.37-0.38,0.69-0.69,0.97c-0.3,0.28-0.65,0.48-1.04,0.63
			c-0.39,0.14-0.83,0.21-1.31,0.21l-1.01-0.01v3.2h-1.22V50.89z M225.53,55.88c0.32,0.01,0.61-0.03,0.87-0.12
			c0.26-0.08,0.47-0.21,0.65-0.38c0.19-0.18,0.32-0.39,0.41-0.63c0.09-0.24,0.13-0.52,0.13-0.83c0-0.31-0.05-0.58-0.15-0.82
			c-0.1-0.24-0.24-0.44-0.44-0.6s-0.43-0.28-0.71-0.37c-0.28-0.08-0.6-0.12-0.97-0.12L224.57,52v3.88H225.53z"/>
		<path d="M235.89,60.29c-0.31-0.05-0.6-0.13-0.89-0.23c-0.28-0.11-0.54-0.24-0.79-0.4s-0.49-0.35-0.71-0.56
			c-0.24-0.24-0.44-0.48-0.63-0.75s-0.33-0.54-0.46-0.85c-0.12-0.3-0.21-0.61-0.27-0.94s-0.09-0.66-0.09-1.01
			c0-0.36,0.03-0.7,0.1-1.02c0.06-0.32,0.16-0.64,0.28-0.94c0.12-0.31,0.27-0.59,0.46-0.86c0.18-0.26,0.39-0.51,0.63-0.74
			c0.21-0.21,0.44-0.4,0.69-0.56s0.52-0.3,0.8-0.4c0.28-0.11,0.58-0.19,0.89-0.24c0.31-0.05,0.63-0.07,0.96-0.07
			c0.34,0,0.67,0.02,0.98,0.07c0.31,0.05,0.61,0.13,0.88,0.24c0.28,0.11,0.55,0.24,0.8,0.4c0.25,0.16,0.48,0.35,0.69,0.56
			c0.24,0.23,0.44,0.47,0.63,0.74c0.18,0.26,0.33,0.55,0.46,0.86c0.12,0.3,0.21,0.61,0.27,0.94c0.06,0.32,0.09,0.67,0.09,1.02
			c0,0.35-0.03,0.69-0.09,1.01c-0.06,0.32-0.15,0.64-0.27,0.94c-0.12,0.3-0.27,0.58-0.45,0.85c-0.18,0.26-0.39,0.51-0.62,0.75
			c-0.22,0.21-0.45,0.4-0.7,0.56c-0.25,0.16-0.51,0.3-0.8,0.4c-0.28,0.1-0.57,0.17-0.88,0.23c-0.31,0.05-0.64,0.08-0.99,0.08
			C236.52,60.37,236.2,60.34,235.89,60.29z M236.85,59.27c0.26,0.01,0.51-0.01,0.74-0.05c0.23-0.04,0.45-0.1,0.66-0.18
			c0.21-0.08,0.41-0.18,0.6-0.31s0.36-0.27,0.52-0.42c0.17-0.18,0.32-0.37,0.46-0.58c0.13-0.21,0.25-0.42,0.33-0.65
			c0.09-0.24,0.16-0.48,0.2-0.73c0.04-0.25,0.07-0.51,0.07-0.79c0-0.28-0.02-0.54-0.07-0.79c-0.04-0.25-0.11-0.49-0.2-0.73
			s-0.2-0.45-0.33-0.66c-0.13-0.2-0.29-0.39-0.47-0.57c-0.16-0.16-0.34-0.31-0.52-0.43c-0.19-0.13-0.39-0.23-0.6-0.31
			c-0.21-0.09-0.43-0.15-0.66-0.19c-0.23-0.04-0.47-0.05-0.73-0.05c-0.24,0-0.48,0.02-0.71,0.05c-0.23,0.04-0.45,0.1-0.66,0.19
			c-0.2,0.08-0.4,0.18-0.58,0.31c-0.19,0.13-0.36,0.27-0.52,0.43c-0.17,0.17-0.32,0.36-0.46,0.56c-0.13,0.2-0.25,0.42-0.33,0.66
			c-0.09,0.24-0.16,0.48-0.21,0.73c-0.05,0.25-0.07,0.52-0.07,0.8c0,0.28,0.02,0.54,0.07,0.79c0.05,0.25,0.12,0.49,0.21,0.73
			c0.09,0.23,0.2,0.44,0.33,0.65c0.13,0.21,0.29,0.4,0.46,0.58c0.16,0.15,0.34,0.29,0.52,0.42c0.19,0.13,0.38,0.23,0.58,0.31
			c0.21,0.08,0.43,0.14,0.66,0.18c0.23,0.04,0.47,0.06,0.72,0.06V59.27z"/>
		<path d="M245.86,50.89h2.13c0.56,0.01,1.06,0.08,1.49,0.2c0.43,0.13,0.8,0.31,1.1,0.55c0.31,0.25,0.54,0.55,0.69,0.89
			c0.15,0.34,0.22,0.74,0.22,1.19c0,0.42-0.06,0.8-0.19,1.14c-0.13,0.34-0.32,0.64-0.58,0.91c-0.26,0.28-0.56,0.48-0.89,0.61
			c-0.34,0.13-0.71,0.2-1.13,0.2l-0.07-0.01l3.27,3.6h-1.52l-3.3-3.78v3.78h-1.22V50.89z M247.94,55.66c0.38,0.01,0.71-0.03,1-0.11
			c0.28-0.08,0.53-0.2,0.73-0.37c0.19-0.16,0.34-0.36,0.44-0.6s0.15-0.51,0.15-0.81c0-0.29-0.05-0.55-0.15-0.77
			c-0.1-0.22-0.25-0.4-0.46-0.55c-0.2-0.15-0.45-0.27-0.75-0.34c-0.3-0.07-0.64-0.11-1.03-0.11l-0.8-0.01v3.66H247.94z"/>
		<path d="M258.58,50.88h1.01l3.93,9.3h-1.42l-0.81-2.14h-4.37l-0.84,2.14h-1.29L258.58,50.88z M260.83,56.94l-1.46-3.73
			c-0.01-0.02-0.02-0.05-0.04-0.1c-0.02-0.05-0.04-0.12-0.07-0.2c-0.02-0.08-0.05-0.17-0.07-0.25s-0.06-0.19-0.1-0.29
			c-0.03,0.11-0.06,0.2-0.08,0.29s-0.05,0.17-0.07,0.25c-0.03,0.08-0.06,0.15-0.07,0.2c-0.02,0.05-0.03,0.09-0.05,0.12l-1.48,3.72
			H260.83z"/>
		<path d="M267.05,50.89h1.22v8.17h3.2v1.12h-4.41V50.89z"/>
		<path d="M275.32,50.89h1.22v9.29h-1.22V50.89z"/>
	</g>
	<rect x="193.12" y="21.09" width="0.94" height="40.55"/>
	<g>
		<polygon points="95.19,58.15 95.19,60.17 62.64,70.84 8.43,59.96 8.43,58.04 62.64,65.83 		"/>
		<polygon points="64.24,48.12 64.24,61.35 75.13,59.18 75.13,49.08 		"/>
		<polygon points="64.24,45.77 64.24,32.43 75.13,36.38 75.13,46.73 		"/>
		<polygon points="76.94,37.45 76.94,46.73 83.98,47.69 83.98,39.58 		"/>
		<polygon points="76.94,49.18 76.94,58.86 83.45,57.44 83.45,49.61 		"/>
		<polygon points="85.26,49.82 85.26,57.03 89.85,56.14 89.85,49.82 		"/>
		<polygon points="62.32,16.74 62.32,30.14 37.48,35.15 37.48,25.39 		"/>
		<polygon points="37.48,37.45 62.32,32.43 62.32,45.66 37.48,46.73 		"/>
		<polygon points="37.48,49.18 62.32,48.33 62.32,61.35 37.48,58.95 		"/>
		<polygon points="62.32,14.29 37.48,23.4 37.48,17.6 		"/>
		<polygon points="34.74,24.59 34.74,18.84 28.92,18.84 21.62,25.12 21.62,30.19 		"/>
		<polygon points="34.74,27.2 34.74,35.79 21.62,38.99 21.62,31.58 		"/>
		<polygon points="21.62,41.07 34.74,38.19 34.74,47.69 21.62,47.9 		"/>
		<polygon points="21.62,49.82 34.74,49.45 34.74,58.68 21.62,57.29 		"/>
		<polygon points="19.69,27.47 19.69,31.31 11.79,33.66 		"/>
		<polygon points="19.69,32.91 19.42,39.58 11.1,40.81 11.1,35.15 		"/>
		<polygon points="19.69,41.77 19.69,48.33 11.1,48.76 11.1,43.05 		"/>
		<polygon points="19.48,50.2 19.48,56.76 11.1,55.53 11.1,50.2 		"/>
		<polygon points="64.24,8.32 64.24,19.94 76.25,25.95 76.25,17.77 		"/>
		<polygon points="69.04,10.58 69.04,13.22 72.8,15.62 72.8,13.42 		"/>
		<g>
			<polyline class="st0" points="76.25,35.15 76.25,24.52 94.33,35.15 94.33,54.84 89.05,56.02 			"/>
			<line class="st0" x1="89.64" y1="32.39" x2="89.64" y2="49.82"/>
			<polyline class="st0" points="83.98,29.06 83.98,38.59 94.33,42.11 			"/>
			<line class="st0" x1="94.33" y1="49.82" x2="89.64" y2="49.18"/>
		</g>
	</g>
	<path d="M286.16,59.47c0,1.9-1.49,3.39-3.43,3.39c-1.92,0-3.45-1.49-3.45-3.39c0-1.86,1.53-3.35,3.45-3.35
		C284.68,56.12,286.16,57.61,286.16,59.47 M280.15,59.47c0,1.49,1.1,2.67,2.61,2.67c1.47,0,2.55-1.18,2.55-2.65
		c0-1.49-1.08-2.69-2.57-2.69C281.25,56.79,280.15,58,280.15,59.47 M282.21,61.22h-0.77v-3.35c0.31-0.06,0.73-0.1,1.29-0.1
		c0.63,0,0.92,0.1,1.16,0.25c0.19,0.14,0.33,0.41,0.33,0.73c0,0.37-0.29,0.65-0.69,0.78v0.04c0.33,0.12,0.51,0.37,0.61,0.81
		c0.1,0.51,0.16,0.72,0.24,0.84h-0.84c-0.1-0.12-0.16-0.43-0.27-0.82c-0.06-0.37-0.26-0.53-0.69-0.53h-0.37V61.22z M282.23,59.32
		h0.37c0.43,0,0.78-0.14,0.78-0.49c0-0.3-0.23-0.51-0.71-0.51c-0.2,0-0.35,0.02-0.43,0.04V59.32z"/>
</g>
</svg>
